Coordinates
version=1
nRows=16
nColumns=36
inDegrees=yes

Units are S.I. units (second, meters, Newtons, ...)
If the header above contains a line with 'inDegrees', this indicates whether rotational values are in degrees (yes) or radians (no).

endheader
time	pelvis_tilt	pelvis_list	pelvis_rotation	pelvis_tx	pelvis_ty	pelvis_tz	hip_flexion_r	hip_adduction_r	hip_rotation_r	knee_angle_r	knee_angle_r_beta	ankle_angle_r	subtalar_angle_r	mtp_angle_r	hip_flexion_l	hip_adduction_l	hip_rotation_l	knee_angle_l	knee_angle_l_beta	ankle_angle_l	subtalar_angle_l	mtp_angle_l	lumbar_extension	lumbar_bending	lumbar_rotation	arm_flex_r	arm_add_r	arm_rot_r	elbow_flex_r	pro_sup_r	arm_flex_l	arm_add_l	arm_rot_l	elbow_flex_l	pro_sup_l
      1.56000000	    -31.91096932	     -1.05007502	     -6.61077431	     -0.26227145	      0.79501469	     -0.60766973	     82.79290108	     -1.91705696	     -5.63265537	     84.09396334	      1.46771654	     19.44940823	    -10.77464296	     -7.39278911	     83.87366741	    -11.31832960	     -0.72142415	     85.53283609	      1.49282961	     21.33630430	     -5.28308355	     -7.39278911	    -41.72822296	     -1.98794775	      3.46433672	     27.73607368	    -20.72300010	     -9.72886150	    102.57349369	    112.92372298	     59.79062920	    -22.44806497	     10.92147737	     87.62017177	    112.99327224
      1.57000000	    -31.65950766	     -1.02977186	     -6.27681842	     -0.25715315	      0.80206380	     -0.60816943	     81.64766490	     -1.86551978	     -5.09793518	     83.23317736	      1.45269299	     19.15313994	    -10.96892456	     -7.39369787	     82.93966336	    -10.47932337	     -0.30681061	     84.84315627	      1.48079242	     20.32738633	     -5.46978773	     -7.39369787	    -40.01650222	     -1.66324112	      2.58778812	     26.28195624	    -22.25137406	    -10.47296601	    109.28066098	    113.33775028	     59.36586486	    -24.12440867	     12.65380102	     94.69285099	    113.63863463
      1.58000000	    -31.27132448	     -0.83544474	     -5.71593520	     -0.25125521	      0.81040240	     -0.60944753	     80.19492391	     -2.20009510	     -4.47011984	     82.17704026	      1.43425992	     18.51456876	    -11.37464152	     -7.39747970	     81.66405362	     -9.33452510	     -0.16503014	     83.80226181	      1.46262539	     18.06502798	     -7.26177495	     -7.39747970	    -38.27534274	     -1.39629425	      1.62149287	     24.56081065	    -23.90298879	    -12.28966068	    116.12518656	    113.63585154	     59.22129578	    -25.55227107	     14.38551725	    101.66281051	    113.46231693
      1.59000000	    -30.73994674	     -0.55381331	     -4.74762644	     -0.24479435	      0.82000052	     -0.61215103	     78.40710486	     -3.14512138	     -3.97363675	     80.98637948	      1.41347897	     18.28303797	    -11.15127461	     -7.40054651	     80.06231019	     -7.73026006	     -0.11234635	     82.45965382	      1.43919246	     16.29846295	     -8.16474082	     -7.40054651	    -36.47004426	     -0.94666968	      0.04881453	     23.13617004	    -26.02781658	    -13.91242327	    122.51481062	    113.92042584	     59.26185209	    -27.42367511	     16.12515312	    108.53966171	    113.50145727
      1.60000000	    -30.34583775	     -0.20770027	     -3.77098678	     -0.23816946	      0.83024376	     -0.61489633	     76.66272178	     -4.11375780	     -3.55485817	     79.60555341	      1.38937901	     17.87007582	    -11.15463967	     -7.40411303	     78.49842111	     -6.07466039	     -0.06793716	     80.92485088	      1.41240509	     14.18268405	     -9.42800345	     -7.40411303	    -34.29174947	     -0.62710694	     -1.52227009	     21.72663932	    -28.65186041	    -15.98073818	    128.65596113	    114.17948572	     59.62029946	    -29.39352863	     17.98916648	    115.04751380	    113.47147957
      1.61000000	    -30.10471108	      0.10598159	     -3.32185215	     -0.23114288	      0.84129980	     -0.61588678	     74.95182753	     -4.42720587	     -3.17735329	     77.90698784	      1.35973345	     17.04307408	    -11.56346961	     -7.40653946	     76.92442334	     -5.15463176	     -0.12734287	     79.28384230	      1.38376409	     12.43258976	    -10.00920704	     -7.40653946	    -31.72802181	     -0.72162387	     -2.76476435	     20.40101431	    -31.54807823	    -18.41941426	    134.18871592	    114.29172701	     60.18793393	    -31.63848244	     19.58038578	    121.18110135	    113.57435653
      1.62000000	    -29.84063966	      0.36724312	     -3.18782442	     -0.22371895	      0.85414539	     -0.61634061	     73.04764417	     -4.46493480	     -2.95847067	     75.78637250	      1.32272173	     15.45374118	    -12.53992287	     -7.40995408	     75.10421045	     -4.60678873	     -0.31222626	     77.29794447	      1.34910364	     10.15764177	    -11.28408458	     -7.40995408	    -29.09972059	     -1.02853981	     -3.30378020	     18.74829991	    -35.19701255	    -21.95107465	    139.33178079	    114.30118461	     61.40049621	    -33.40207946	     21.59569642	    126.38207443	    113.42989479
      1.63000000	    -29.30060258	      0.51485938	     -3.01423515	     -0.21580157	      0.86972860	     -0.61791989	     70.57956840	     -4.75022630	     -3.09864083	     73.19376183	      1.27747214	     13.70395340	    -13.08634700	     -7.41501535	     72.70540598	     -3.90087081	     -0.33166279	     74.80479350	      1.30558994	      7.84371553	    -12.42449956	     -7.41501535	    -26.84696097	     -1.15680017	     -3.48280659	     16.99169785	    -39.67078172	    -26.76816755	    143.68919148	    114.13430761	     62.98920108	    -34.83117092	     23.64046746	    130.77124198	    113.18173979
      1.64000000	    -28.30754597	      0.58669154	     -2.95945279	     -0.20730114	      0.88822753	     -0.61981784	     67.35756793	     -5.05016012	     -3.44438351	     70.07331658	      1.22301009	     11.76847113	    -13.23866368	     -7.42300580	     69.50963990	     -3.27950790	     -0.28818216	     71.79465909	      1.25305319	      5.53654879	    -13.25804596	     -7.42300580	    -25.18896269	     -1.26005067	     -3.15299667	     14.67152163	    -44.95671126	    -33.09517785	    146.92491322	    114.05607016	     65.01443035	    -36.02817027	     25.59703396	    134.20889029	    112.94867631
      1.65000000	    -27.20676487	      0.54696693	     -3.29407377	     -0.19838610	      0.90842818	     -0.62062750	     63.79572853	     -4.94539892	     -3.87418324	     66.39716731	      1.15884918	      8.88445252	    -13.75659038	     -7.42755066	     65.98024081	     -3.19840696	     -0.35406883	     68.42675136	      1.19427211	      2.61227031	    -14.44144501	     -7.42755066	    -23.52379290	     -1.37012610	     -2.62636272	     12.47313341	    -50.59794506	    -39.27440732	    148.59066180	    114.00700524	     66.74922250	    -37.73355967	     27.16927924	    136.92319106	    112.66073613
      1.66000000	    -25.96664592	      0.45951826	     -3.85171129	     -0.18906142	      0.93004611	     -0.62077710	     59.86711960	     -4.71107207	     -4.38290692	     62.27010539	      1.08681836	      6.41862630	    -12.98703228	     -7.43664184	     62.07652307	     -3.49137685	     -0.60367599	     64.73619835	      1.12985981	      0.50456120	    -14.11580988	     -7.43664184	    -22.07432122	     -1.55872831	     -0.74501135	      6.20172368	    -56.78307574	    -50.28958776	    149.27772127	    113.97682398	     69.18314667	    -38.19700429	     29.58886576	    138.00016811	    111.63880925
      1.67000000	    -24.69455817	      0.30415898	     -4.34637795	     -0.17949820	      0.95297874	     -0.62145391	     55.60678654	     -4.66706033	     -5.25473322	     57.55994970	      1.00461064	      3.34637614	    -12.02142591	     -7.44795400	     57.91223072	     -3.70678918	     -0.83444277	     60.50835233	      1.05606997	     -2.45812593	    -14.21717988	     -7.44795400	    -20.84953415	     -1.40342126	      1.76425095	     -5.28988937	    -63.01407460	    -66.12993314	    149.45210343	    113.16123179	     71.53234523	    -38.06743338	     31.93817179	    137.92652633	    110.79042468
      1.68000000	    -23.42017701	      0.24622304	     -4.82745931	     -0.16925244	      0.97755551	     -0.62204604	     50.97984370	     -4.79270483	     -6.35703757	     52.11623452	      0.90959989	      0.07568411	    -10.09354814	     -7.44838165	     53.33475433	     -3.83196326	     -1.20534551	     55.51186432	      0.96886481	     -5.47818722	    -13.53427544	     -7.44838165	    -19.34419012	     -0.95271332	      1.46781864	     -7.74795628	    -69.65112477	    -68.97642569	    149.06740781	    112.96458637	     71.75189941	    -41.66161268	     31.92375199	    138.77516337	    110.99524334
      1.69000000	    -22.61090621	      0.07792698	     -5.48798632	     -0.15905056	      1.00210566	     -0.62195205	     46.59039350	     -4.59373388	     -7.54938867	     46.03001700	      0.80337535	     -4.21674074	     -8.40392091	     -7.46915588	     49.05036764	     -4.23049320	     -1.72427843	     50.04232012	      0.87340325	     -9.49486445	    -13.64478985	     -7.46915588	    -18.57895258	     -0.72286289	      9.35493965	    -54.32228496	    -66.12428893	   -122.42381272	    149.25723034	    110.64004890	     75.97715395	    -35.53408556	     36.32730657	    134.71010602	    109.17576508
      1.70000000	    -22.04743182	      0.14512095	     -6.29444496	     -0.14765818	      1.02853240	     -0.62071373	     42.00326178	     -4.31486546	     -8.60116059	     38.87880040	      0.67856308	     -9.29927422	     -5.52487214	     -7.47418106	     44.43744202	     -4.57710655	     -2.67436875	     43.50189212	      0.75925125	    -13.89533760	    -12.75528906	     -7.47418106	    -16.72120261	     -0.54232545	     12.42307445	    -72.89630187	    -63.08100597	   -141.42648159	    148.55518290	    107.91650448	     77.35336970	    -35.39648542	     38.04920504	    132.74485286	    108.72968829
      1.71000000	    -21.47523143	      0.45021216	     -7.03554746	     -0.13560075	      1.05644772	     -0.61954898	     37.04466659	     -4.21875001	     -9.69324948	     30.68913899	      0.53562652	    -15.92087064	     -1.69663014	     -7.47376296	     39.37620868	     -4.42695882	     -3.62808575	     35.87456597	      0.62612929	    -19.75473611	    -11.87836026	     -7.47376296	    -14.73437292	     -0.65046531	     14.68564067	    -85.53189371	    -59.77688532	   -152.82132497	    146.83391554	    107.70940401	     78.60892612	    -35.77297717	     39.64252242	    130.41378889	    109.36801697
